<?xml version="1.0" encoding="utf-8"?>
<!-- Svg Vector Icons : http://www.onlinewebfonts.com/icon -->
<!DOCTYPE svg PUBLIC "-//W3C//DTD SVG 1.1//EN" "http://www.w3.org/Graphics/SVG/1.1/DTD/svg11.dtd">
<svg version="1.1" xmlns="http://www.w3.org/2000/svg" xmlns:xlink="http://www.w3.org/1999/xlink" x="0px" y="0px" viewBox="0 0 1000 1000" enable-background="new 0 0 1000 1000" xml:space="preserve">
<metadata> Svg Vector Icons : http://www.onlinewebfonts.com/icon </metadata>
<g><g transform="translate(0.000000,511.000000) scale(0.100000,-0.100000)"><path d="M7368.3,2259.3c-171.5-12.2-684-89.8-908.6-134.7l-224.6-47l-6.1-287.9l-6.1-287.9l169.5,57.2c93.9,32.7,238.9,73.5,322.6,89.8c185.8,36.8,733,93.9,912.6,93.9h130.7l-189.9-98c-106.2-53.1-247-138.8-316.5-191.9c-365.4-283.8-706.4-792.2-826.9-1241.3c-38.8-147-44.9-222.5-44.9-490c2.1-379.8,38.8-541,185.8-837.1c79.6-161.3,128.6-224.6,281.8-379.8c161.3-163.3,212.3-200.1,400.2-292c336.9-165.4,684-238.9,1212.8-261.3c498.2-20.4,914.7,49,1249.5,208.3l189.9,89.8v285.8c0,159.3-4.1,287.9-8.2,287.9c-2,0-102.1-44.9-218.4-100c-394.1-185.8-692.1-255.2-1090.3-253.2c-620.7,2-1045.3,136.8-1329.1,426.7c-212.3,214.4-314.4,479.8-314.4,820.8c0,477.8,171.5,873.8,526.7,1212.8c430.8,410.4,957.5,639,1582.3,681.9l198,14.3v240.9v238.9l-147,34.7C8640.3,2245,7868.5,2298.1,7368.3,2259.3z"/><path d="M1792.5,1877.5c-138.8-36.7-271.5-122.5-445.1-287.9c-271.5-261.3-375.7-483.9-377.7-816.7l-2-204.2l-108.2-12.3c-253.2-32.7-506.3-228.7-637-494.1C110.2-168.2,100-262.1,100-1191.1v-843.2h316.5h316.5v853.4c0,508.4,8.2,882,20.4,924.9c26.5,91.9,187.8,247.1,292,281.7c69.4,24.5,87.8,20.4,259.3-57.2c243-110.2,434.9-161.3,694.2-185.8c320.5-30.6,488,8.2,782,179.7c177.6,102.1,251.1,177.6,324.6,326.7c67.4,136.8,67.4,136.8,65.3,443c0,338.9-26.5,451.2-153.1,647.2C2782.7,1742.8,2190.7,1985.8,1792.5,1877.5z M2254,1244.6c100-24.5,136.8-44.9,196-112.3c73.5-81.7,140.9-261.3,140.9-371.6c0-165.4-151.1-390-283.8-426.7c-134.8-36.7-659.5,63.3-718.7,136.8c-16.3,18.4-26.5,102.1-26.5,216.4c-2,218.5,34.7,310.3,177.6,459.4C1864,1275.3,2006.9,1301.8,2254,1244.6z"/><path d="M4367.1-74.3v-408.3h326.7h326.7v408.3v408.3h-326.7h-326.7V-74.3z"/><path d="M8185-166.2v-234.8h234.8h234.8v234.8V68.6h-234.8H8185V-166.2z"/></g></g>
</svg>