<?xml version="1.0" standalone="no"?>
<!DOCTYPE svg PUBLIC "-//W3C//DTD SVG 20010904//EN"
 "http://www.w3.org/TR/2001/REC-SVG-20010904/DTD/svg10.dtd">
<svg version="1.0" xmlns="http://www.w3.org/2000/svg"
 width="629.000000pt" height="496.000000pt" viewBox="0 0 629.000000 496.000000"
 preserveAspectRatio="xMidYMid meet">
<metadata>
Created by potrace 1.14, written by Peter Selinger 2001-2017
</metadata>
<g transform="translate(0.000000,496.000000) scale(0.100000,-0.100000)"
fill="#000000" stroke="none">
<path d="M4665 4544 c-16 -3 -81 -14 -142 -25 l-113 -21 0 -170 0 -169 43 3
42 3 20 98 c23 112 26 115 124 149 53 18 88 23 176 23 101 0 115 -2 168 -29
66 -32 106 -80 134 -159 23 -68 23 -272 0 -369 -55 -225 -147 -343 -546 -702
l-221 -199 0 -99 0 -98 535 0 535 0 0 100 0 100 -451 0 -451 0 54 48 c29 27
143 128 253 224 460 402 564 565 553 867 -3 101 -6 112 -41 184 -55 112 -148
182 -293 222 -58 16 -314 29 -379 19z"/>
<path d="M1967 3120 c-142 -22 -341 -92 -513 -178 l-82 -41 -7 84 -7 85 -309
0 -309 0 0 -50 c0 -57 -14 -49 155 -84 l100 -21 3 -902 2 -901 -52 -11 c-29
-6 -88 -19 -130 -28 l-78 -16 0 -54 0 -53 478 2 477 3 0 50 0 50 -85 16 c-47
9 -118 22 -157 29 l-73 12 0 837 0 838 123 21 c315 56 461 55 578 -4 68 -34
125 -104 149 -182 19 -62 20 -93 20 -787 l0 -723 -92 -17 c-51 -9 -121 -21
-156 -27 l-63 -12 3 -50 3 -51 500 0 500 0 0 50 0 50 -60 12 c-33 6 -104 19
-157 28 l-97 17 -3 772 c-3 677 -6 778 -20 826 -9 30 -15 57 -13 59 9 8 198
42 344 62 318 43 456 3 525 -150 15 -34 31 -87 36 -118 6 -33 10 -365 10 -754
l0 -696 -160 -28 -161 -29 3 -50 3 -51 478 -3 477 -2 0 53 0 54 -135 28 -134
28 -3 786 c-3 716 -5 791 -21 846 -69 235 -195 345 -429 376 -177 24 -476 -48
-776 -187 -52 -24 -97 -44 -101 -44 -4 0 -14 12 -23 28 -48 81 -160 156 -281
186 -76 20 -208 27 -280 16z"/>
</g>
</svg>
