<?xml version="1.0" encoding="iso-8859-1"?>
<!-- Generator: Adobe Illustrator 17.1.0, SVG Export Plug-In . SVG Version: 6.00 Build 0)  -->
<!DOCTYPE svg PUBLIC "-//W3C//DTD SVG 1.1//EN" "http://www.w3.org/Graphics/SVG/1.1/DTD/svg11.dtd">
<svg version="1.1" id="Capa_1" xmlns="http://www.w3.org/2000/svg" xmlns:xlink="http://www.w3.org/1999/xlink" x="0px" y="0px"
	 viewBox="0 0 428.964 428.964" style="enable-background:new 0 0 428.964 428.964;" xml:space="preserve">
<path d="M387.24,128.945h-33.446L232.16,7.311C227.446,2.596,221.167,0,214.482,0s-12.964,2.596-17.678,7.311L75.17,128.945H41.724
	c-11.028,0-20,8.972-20,20v260.019c0,11.028,8.972,20,20,20H387.24c11.028,0,20-8.972,20-20V148.945
	C407.24,137.917,398.268,128.945,387.24,128.945z M186.138,60.403c5.356,10.198,16.048,17.174,28.344,17.174
	s22.988-6.976,28.344-17.174l68.542,68.542H117.596L186.138,60.403z M204.991,347.001h-30.576L154.2,274.245l-20.214,72.757h-30.574
	L71.539,210.908h34.196l15.463,73.763l20.177-73.763h25.557l20.343,73.827l15.387-73.827h34.109L204.991,347.001z M357.404,259.354
	l-1.402,4.209h-32.456v-4.441c0-7.216-1.644-12.697-4.885-16.291c-3.122-3.462-8.333-5.217-15.487-5.217
	c-6.176,0-10.943,2.44-14.574,7.459c-3.905,5.395-5.885,12.492-5.885,21.094v25.4c0,8.678,2.076,15.806,6.17,21.184
	c3.865,5.077,8.968,7.544,15.601,7.544c6.621,0,11.458-1.661,14.377-4.935c3.051-3.424,4.597-8.853,4.597-16.136v-4.441h32.369
	l1.401,4.209l0.012,0.681c0.253,14.932-4.439,27.013-13.944,35.908c-9.402,8.795-22.46,13.255-38.813,13.255
	c-16.495,0-30.119-5.421-40.495-16.114c-10.34-10.654-15.582-24.482-15.582-41.099v-25.25c0-16.532,5.109-30.343,15.186-41.05
	c10.148-10.783,23.464-16.251,39.58-16.251c16.793,0,30.205,4.461,39.862,13.259c9.795,8.927,14.633,21.153,14.38,36.339
	L357.404,259.354z"/>
<g>
</g>
<g>
</g>
<g>
</g>
<g>
</g>
<g>
</g>
<g>
</g>
<g>
</g>
<g>
</g>
<g>
</g>
<g>
</g>
<g>
</g>
<g>
</g>
<g>
</g>
<g>
</g>
<g>
</g>
</svg>
